<svg width="478" height="287" viewBox="0 0 478 287" fill="none" xmlns="http://www.w3.org/2000/svg">
<path d="M478 0H0V287H478V0Z" fill="white"/>
<path d="M478 0H0V20.813H478V0Z" fill="#292929"/>
<path d="M182 58.0573H97C95.3431 58.0573 94 59.5286 94 61.3435V134.737C94 136.552 95.3431 138.023 97 138.023H182C183.657 138.023 185 136.552 185 134.737V61.3435C185 59.5286 183.657 58.0573 182 58.0573Z" fill="#4991FC"/>
<path d="M182 158.836H97C95.3431 158.836 94 160.307 94 162.122V235.515C94 237.33 95.3431 238.802 97 238.802H182C183.657 238.802 185 237.33 185 235.515V162.122C185 160.307 183.657 158.836 182 158.836Z" fill="#77DFF5"/>
<path d="M390.5 78.8702H219.5C217.567 78.8702 216 80.5868 216 82.7042C216 84.8217 217.567 86.5382 219.5 86.5382H390.5C392.433 86.5382 394 84.8217 394 82.7042C394 80.5868 392.433 78.8702 390.5 78.8702Z" fill="#DEDEDE"/>
<path d="M390.5 78.8702H219.5C217.567 78.8702 216 80.5868 216 82.7042C216 84.8217 217.567 86.5382 219.5 86.5382H390.5C392.433 86.5382 394 84.8217 394 82.7042C394 80.5868 392.433 78.8702 390.5 78.8702Z" fill="#DEDEDE"/>
<path d="M390.5 95.3015H219.5C217.567 95.3015 216 97.018 216 99.1355C216 101.253 217.567 102.969 219.5 102.969H390.5C392.433 102.969 394 101.253 394 99.1355C394 97.018 392.433 95.3015 390.5 95.3015Z" fill="#DEDEDE"/>
<path d="M390.5 95.3015H219.5C217.567 95.3015 216 97.018 216 99.1355C216 101.253 217.567 102.969 219.5 102.969H390.5C392.433 102.969 394 101.253 394 99.1355C394 97.018 392.433 95.3015 390.5 95.3015Z" fill="#DEDEDE"/>
<path d="M268.5 58.0573H219.5C217.567 58.0573 216 59.7738 216 61.8912C216 64.0087 217.567 65.7252 219.5 65.7252H268.5C270.433 65.7252 272 64.0087 272 61.8912C272 59.7738 270.433 58.0573 268.5 58.0573Z" fill="#DEDEDE"/>
<path d="M268.5 58.0573H219.5C217.567 58.0573 216 59.7738 216 61.8912C216 64.0087 217.567 65.7252 219.5 65.7252H268.5C270.433 65.7252 272 64.0087 272 61.8912C272 59.7738 270.433 58.0573 268.5 58.0573Z" fill="#DEDEDE"/>
<path d="M345.5 6.57251H324.5C322.567 6.57251 321 8.28904 321 10.4065C321 12.5239 322.567 14.2404 324.5 14.2404H345.5C347.433 14.2404 349 12.5239 349 10.4065C349 8.28904 347.433 6.57251 345.5 6.57251Z" fill="#F8F8F8"/>
<path d="M345.5 6.57251H324.5C322.567 6.57251 321 8.28904 321 10.4065C321 12.5239 322.567 14.2404 324.5 14.2404H345.5C347.433 14.2404 349 12.5239 349 10.4065C349 8.28904 347.433 6.57251 345.5 6.57251Z" fill="#9E9E9E"/>
<path d="M379.5 6.57251H359.5C357.567 6.57251 356 8.28904 356 10.4065C356 12.5239 357.567 14.2404 359.5 14.2404H379.5C381.433 14.2404 383 12.5239 383 10.4065C383 8.28904 381.433 6.57251 379.5 6.57251Z" fill="#DEDEDE"/>
<path d="M379.5 6.57251H359.5C357.567 6.57251 356 8.28904 356 10.4065C356 12.5239 357.567 14.2404 359.5 14.2404H379.5C381.433 14.2404 383 12.5239 383 10.4065C383 8.28904 381.433 6.57251 379.5 6.57251Z" fill="#E8E8E8"/>
<path d="M414.5 6.57251H393.5C391.567 6.57251 390 8.28904 390 10.4065C390 12.5239 391.567 14.2404 393.5 14.2404H414.5C416.433 14.2404 418 12.5239 418 10.4065C418 8.28904 416.433 6.57251 414.5 6.57251Z" fill="#DEDEDE"/>
<path d="M414.5 6.57251H393.5C391.567 6.57251 390 8.28904 390 10.4065C390 12.5239 391.567 14.2404 393.5 14.2404H414.5C416.433 14.2404 418 12.5239 418 10.4065C418 8.28904 416.433 6.57251 414.5 6.57251Z" fill="#9E9E9E"/>
<path d="M331.5 179.649H219.5C217.567 179.649 216 181.365 216 183.483C216 185.6 217.567 187.317 219.5 187.317H331.5C333.433 187.317 335 185.6 335 183.483C335 181.365 333.433 179.649 331.5 179.649Z" fill="#DEDEDE"/>
<path d="M331.5 179.649H219.5C217.567 179.649 216 181.365 216 183.483C216 185.6 217.567 187.317 219.5 187.317H331.5C333.433 187.317 335 185.6 335 183.483C335 181.365 333.433 179.649 331.5 179.649Z" fill="#DEDEDE"/>
<path d="M338.5 196.08H219.5C217.567 196.08 216 197.797 216 199.914C216 202.032 217.567 203.748 219.5 203.748H338.5C340.433 203.748 342 202.032 342 199.914C342 197.797 340.433 196.08 338.5 196.08Z" fill="#DEDEDE"/>
<path d="M338.5 196.08H219.5C217.567 196.08 216 197.797 216 199.914C216 202.032 217.567 203.748 219.5 203.748H338.5C340.433 203.748 342 202.032 342 199.914C342 197.797 340.433 196.08 338.5 196.08Z" fill="#DEDEDE"/>
<path d="M358.5 211.416H219.5C217.567 211.416 216 213.133 216 215.25C216 217.367 217.567 219.084 219.5 219.084H358.5C360.433 219.084 362 217.367 362 215.25C362 213.133 360.433 211.416 358.5 211.416Z" fill="#DEDEDE"/>
<path d="M358.5 211.416H219.5C217.567 211.416 216 213.133 216 215.25C216 217.367 217.567 219.084 219.5 219.084H358.5C360.433 219.084 362 217.367 362 215.25C362 213.133 360.433 211.416 358.5 211.416Z" fill="#DEDEDE"/>
<path d="M256.5 158.836H219.5C217.567 158.836 216 160.552 216 162.67C216 164.787 217.567 166.504 219.5 166.504H256.5C258.433 166.504 260 164.787 260 162.67C260 160.552 258.433 158.836 256.5 158.836Z" fill="#DEDEDE"/>
<path d="M256.5 158.836H219.5C217.567 158.836 216 160.552 216 162.67C216 164.787 217.567 166.504 219.5 166.504H256.5C258.433 166.504 260 164.787 260 162.67C260 160.552 258.433 158.836 256.5 158.836Z" fill="#DEDEDE"/>
<path d="M221 276.046C223.761 276.046 226 273.594 226 270.569C226 267.544 223.761 265.092 221 265.092C218.239 265.092 216 267.544 216 270.569C216 273.594 218.239 276.046 221 276.046Z" fill="#E281FB"/>
<path d="M239 276.046C241.761 276.046 244 273.594 244 270.569C244 267.544 241.761 265.092 239 265.092C236.239 265.092 234 267.544 234 270.569C234 273.594 236.239 276.046 239 276.046Z" fill="#52EDBE"/>
<path d="M257 276.046C259.761 276.046 262 273.594 262 270.569C262 267.544 259.761 265.092 257 265.092C254.239 265.092 252 267.544 252 270.569C252 273.594 254.239 276.046 257 276.046Z" fill="#65BEFF"/>
<path d="M84.91 8.3033C85.05 8.3033 85.1633 8.36538 85.25 8.48952C85.3433 8.60637 85.39 8.7013 85.39 8.77433C85.39 8.84736 85.3733 8.90213 85.34 8.93865C85.2933 8.98977 85.0733 9.09565 84.68 9.25632C84.2933 9.41698 83.73 9.69449 82.99 10.0888C82.25 10.4832 81.88 10.757 81.88 10.9104C81.88 11.0345 82.12 11.239 82.6 11.5238C83.08 11.8086 83.56 12.0898 84.04 12.3673C84.5267 12.6448 84.77 12.8383 84.77 12.9479C84.77 13.1012 84.6467 13.1779 84.4 13.1779C84.16 13.1779 83.75 13.0501 83.17 12.7945C82.5967 12.5316 82.06 12.2249 81.56 11.8744C81.06 11.5238 80.81 11.2464 80.81 11.0419C80.81 10.925 80.8467 10.779 80.92 10.6037C80.9933 10.4211 81.07 10.2933 81.15 10.2203C81.49 9.90626 82.1167 9.50826 83.03 9.02628C83.95 8.54429 84.5767 8.3033 84.91 8.3033ZM91.1406 11.4581C91.1406 11.8889 90.9373 12.3089 90.5306 12.7178C90.124 13.1195 89.5973 13.4444 88.9506 13.6928C88.304 13.9338 87.644 14.0543 86.9706 14.0543C86.5773 14.0543 86.224 13.9338 85.9106 13.6928C85.604 13.4518 85.4506 13.2291 85.4506 13.0246C85.4506 12.8128 85.5073 12.7069 85.6206 12.7069C85.6473 12.7069 85.7773 12.7872 86.0106 12.9479C86.2506 13.1012 86.5006 13.1815 86.7606 13.1889C86.6673 13.1377 86.5773 13.0429 86.4906 12.9041C86.4106 12.7653 86.3706 12.6338 86.3706 12.5097C86.3706 12.3856 86.4506 12.0387 86.6106 11.4691C87.104 9.7529 87.3573 8.43475 87.3706 7.5146H87.2906C87.1706 7.5146 87.0473 7.43427 86.9206 7.27361C86.794 7.10565 86.7306 6.97054 86.7306 6.8683C86.7306 6.74416 86.8706 6.63826 87.1506 6.55063C87.4373 6.45569 87.7806 6.40823 88.1806 6.40823C89.114 6.40823 89.834 6.54698 90.3406 6.82448C90.8473 7.10199 91.1006 7.50365 91.1006 8.02945C91.1006 8.46761 90.9306 8.86561 90.5906 9.22345C90.2573 9.5813 89.7673 9.86975 89.1206 10.0888L89.2106 10.0998C89.7706 10.1363 90.2306 10.286 90.5906 10.5489C90.9573 10.8118 91.1406 11.1149 91.1406 11.4581ZM90.2006 8.08422C90.2006 7.84323 90.0873 7.657 89.8606 7.52555C89.6406 7.3868 89.3706 7.31742 89.0506 7.31742C88.7373 7.31742 88.354 7.36124 87.9006 7.44887C88.0873 7.66796 88.1806 7.87974 88.1806 8.08422C88.1806 8.28139 88.064 8.88387 87.8306 9.89166C87.9906 9.78212 88.2406 9.65797 88.5806 9.51922C88.9206 9.37317 89.1873 9.24536 89.3806 9.13582C89.5806 9.02628 89.724 8.93134 89.8106 8.85101C89.904 8.76338 89.9906 8.65019 90.0706 8.51143C90.1573 8.37267 90.2006 8.23027 90.2006 8.08422ZM90.2706 11.4143C90.2706 11.1952 90.0373 11.0126 89.5706 10.8666C89.1106 10.7132 88.6506 10.6365 88.1906 10.6365C88.0106 10.6365 87.854 10.5343 87.7206 10.3298C87.314 12.0898 87.0473 13.0429 86.9206 13.1889C87.394 13.1743 87.8906 13.0829 88.4106 12.915C88.9306 12.7398 89.3706 12.5133 89.7306 12.2359C90.0906 11.9584 90.2706 11.6845 90.2706 11.4143ZM95.6078 8.9496C95.6345 8.83275 95.6611 8.75242 95.6878 8.70861C95.7145 8.66479 95.7711 8.64288 95.8578 8.64288C95.9511 8.64288 96.0611 8.73782 96.1878 8.92769C96.3211 9.11756 96.3878 9.30013 96.3878 9.4754C96.3878 9.57034 96.2411 10.1327 95.9478 11.1623C95.6545 12.192 95.4278 13.01 95.2678 13.6161C95.1878 13.9228 95.0745 14.0762 94.9278 14.0762C94.8411 14.0762 94.7678 14.036 94.7078 13.9557C94.6478 13.8754 94.6178 13.7292 94.6178 13.5175C94.6178 13.3058 94.6945 12.9224 94.8478 12.3673C94.5678 12.8639 94.2645 13.2729 93.9378 13.5942C93.6111 13.9155 93.3111 14.0762 93.0378 14.0762C92.7711 14.0762 92.5178 13.9374 92.2778 13.6599C92.0378 13.3824 91.9178 13.0976 91.9178 12.8055C91.9178 12.1117 92.1011 11.2464 92.4678 10.2093C92.8411 9.16504 93.1511 8.64288 93.3978 8.64288C93.5178 8.64288 93.6211 8.70496 93.7078 8.8291C93.8011 8.94595 93.8478 9.08105 93.8478 9.23441C93.8478 9.30013 93.7578 9.53748 93.5778 9.94643C93.3978 10.3481 93.2178 10.8228 93.0378 11.3705C92.8578 11.9108 92.7678 12.3856 92.7678 12.7945C92.7678 12.9114 92.8011 13.01 92.8678 13.0903C92.9345 13.1634 93.0145 13.1998 93.1078 13.1998C93.3611 13.1998 93.6611 12.9552 94.0078 12.4659C94.3611 11.9766 94.6811 11.407 94.9678 10.757C95.2545 10.1071 95.4678 9.50462 95.6078 8.9496ZM98.1623 7.08739C98.1623 6.94133 98.2156 6.80258 98.3223 6.67113C98.4289 6.53968 98.5356 6.47395 98.6423 6.47395C98.7556 6.47395 98.8889 6.62366 99.0423 6.92307C99.1956 7.21519 99.2723 7.45983 99.2723 7.657C99.2723 7.73004 99.2423 7.79576 99.1823 7.85418C99.1223 7.9126 99.0589 7.94181 98.9923 7.94181C98.8323 7.94181 98.6523 7.83592 98.4523 7.62414C98.2589 7.41236 98.1623 7.23344 98.1623 7.08739ZM98.1123 8.64288C98.2389 8.64288 98.3589 8.72687 98.4723 8.89483C98.5856 9.06279 98.6423 9.2271 98.6423 9.38777C98.6423 9.54843 98.5456 10.0304 98.3523 10.8337C98.1589 11.6298 97.9156 12.5243 97.6223 13.5175C97.5089 13.8826 97.3656 14.0652 97.1923 14.0652C97.0989 14.0652 97.0189 14.025 96.9523 13.9447C96.8856 13.8571 96.8523 13.7621 96.8523 13.6599C96.8523 13.5504 96.8756 13.3824 96.9223 13.156C96.9756 12.9224 97.0489 12.6156 97.1423 12.2359C97.2423 11.8488 97.3189 11.5348 97.3723 11.2938C97.4323 11.0528 97.4923 10.7826 97.5523 10.4832C97.6123 10.1765 97.6589 9.93183 97.6923 9.74926C97.7323 9.55939 97.7756 9.36951 97.8223 9.17964C97.9156 8.8218 98.0123 8.64288 98.1123 8.64288ZM101.235 6.49586C101.235 7.86878 100.975 9.65067 100.455 11.8415C100.122 13.3313 99.8884 14.0762 99.7551 14.0762C99.6617 14.0762 99.5517 13.9959 99.4251 13.8352C99.3051 13.6745 99.2451 13.5504 99.2451 13.4627C99.2451 13.3751 99.3417 12.9224 99.5351 12.1044C99.7284 11.2865 99.9217 10.2824 100.115 9.092C100.308 7.89435 100.405 6.81718 100.405 5.86052C100.405 5.75828 100.418 5.68525 100.445 5.64143C100.472 5.59761 100.528 5.57571 100.615 5.57571C100.702 5.57571 100.825 5.6816 100.985 5.89338C101.152 6.09786 101.235 6.29868 101.235 6.49586ZM105.996 5.57571C106.103 5.57571 106.233 5.68525 106.386 5.90433C106.546 6.11611 106.626 6.31694 106.626 6.50681C106.626 6.69668 106.543 7.2371 106.376 8.12803C106.21 9.01168 106.016 9.92817 105.796 10.8775C105.316 13.01 105 14.0762 104.846 14.0762C104.753 14.0762 104.65 14.0141 104.536 13.8899C104.43 13.7585 104.376 13.6453 104.376 13.5504C104.376 13.4554 104.4 13.2656 104.446 12.9807C103.793 13.7111 103.223 14.0762 102.736 14.0762C102.443 14.0762 102.176 13.9301 101.936 13.638C101.703 13.3458 101.586 13.0429 101.586 12.7288C101.586 12.2761 101.696 11.7393 101.916 11.1185C102.143 10.4905 102.466 9.92088 102.886 9.40968C103.306 8.89848 103.753 8.64288 104.226 8.64288C104.7 8.64288 105.03 8.95325 105.216 9.57399C105.556 8.0258 105.743 6.80258 105.776 5.90433C105.776 5.68525 105.85 5.57571 105.996 5.57571ZM104.896 10.9542C104.896 10.5599 104.833 10.2276 104.706 9.95739C104.586 9.68718 104.44 9.55208 104.266 9.55208C103.98 9.55208 103.686 9.74561 103.386 10.1327C103.086 10.5197 102.846 10.9652 102.666 11.4691C102.493 11.9656 102.406 12.3966 102.406 12.7617C102.406 12.8931 102.45 12.999 102.536 13.0793C102.623 13.1596 102.726 13.1998 102.846 13.1998C103.106 13.1998 103.456 12.9953 103.896 12.5864C104.343 12.1775 104.666 11.6955 104.866 11.1404L104.896 11.009V10.9542ZM108.366 10.8118H108.346C108.333 10.8848 108.266 11.1769 108.146 11.6881C108.033 12.1994 107.96 12.5352 107.926 12.6959C107.893 12.8493 107.863 12.9734 107.836 13.0684C107.816 13.1634 107.793 13.2729 107.766 13.397C107.74 13.5139 107.713 13.6087 107.686 13.6818C107.666 13.7475 107.646 13.8133 107.626 13.879C107.586 14.0031 107.546 14.0652 107.506 14.0652C107.42 14.0652 107.306 13.963 107.166 13.7585C107.026 13.5467 106.956 13.3751 106.956 13.2436C106.956 13.1122 107.146 12.1994 107.526 10.5051C107.913 8.81084 108.113 7.68256 108.126 7.12025C108.126 7.01071 108.15 6.92307 108.196 6.85735C108.263 6.70399 108.46 6.59445 108.786 6.52872C109.12 6.463 109.603 6.43013 110.236 6.43013C110.876 6.43013 111.376 6.46664 111.736 6.53968C112.103 6.61271 112.286 6.71494 112.286 6.84639C112.286 6.93403 112.23 6.9961 112.116 7.03261C112.003 7.06913 111.903 7.09834 111.816 7.12025C111.73 7.13485 111.616 7.15311 111.476 7.17502C111.336 7.18962 111.206 7.20423 111.086 7.21884C110.966 7.22614 110.81 7.24074 110.616 7.26265C110.43 7.28456 110.256 7.30647 110.096 7.32838C109.936 7.34298 109.72 7.36855 109.446 7.40506C109.173 7.44157 108.996 7.46348 108.916 7.47078C108.923 7.49269 108.926 7.52555 108.926 7.56937C108.926 7.9126 108.796 8.7013 108.536 9.93548C108.95 9.95739 109.393 9.94643 109.866 9.90262C110.346 9.8588 110.64 9.83689 110.746 9.83689C111 9.83689 111.126 9.89531 111.126 10.0122C111.126 10.2385 110.836 10.4284 110.256 10.5818C109.683 10.7351 109.053 10.8118 108.366 10.8118ZM113.911 6.49586C113.911 7.86878 113.651 9.65067 113.131 11.8415C112.798 13.3313 112.564 14.0762 112.431 14.0762C112.338 14.0762 112.228 13.9959 112.101 13.8352C111.981 13.6745 111.921 13.5504 111.921 13.4627C111.921 13.3751 112.018 12.9224 112.211 12.1044C112.404 11.2865 112.598 10.2824 112.791 9.092C112.984 7.89435 113.081 6.81718 113.081 5.86052C113.081 5.75828 113.094 5.68525 113.121 5.64143C113.148 5.59761 113.204 5.57571 113.291 5.57571C113.378 5.57571 113.501 5.6816 113.661 5.89338C113.828 6.09786 113.911 6.29868 113.911 6.49586ZM117.412 10.5051C117.412 10.2568 117.375 10.0231 117.302 9.80403C117.229 9.57764 117.122 9.41332 116.982 9.31109C116.522 9.44985 116.125 9.84054 115.792 10.4832C115.465 11.1185 115.302 11.7174 115.302 12.2797C115.302 12.842 115.429 13.1925 115.682 13.3313C116.162 13.2291 116.569 12.8712 116.902 12.2578C117.242 11.637 117.412 11.0528 117.412 10.5051ZM114.782 10.6037C115.015 10.0341 115.319 9.56668 115.692 9.20155C116.072 8.8291 116.459 8.64288 116.852 8.64288C117.252 8.64288 117.585 8.8291 117.852 9.20155C118.119 9.56668 118.252 10.0158 118.252 10.5489C118.252 11.0747 118.135 11.6151 117.902 12.1701C117.669 12.7178 117.345 13.1743 116.932 13.5394C116.525 13.8973 116.092 14.0762 115.632 14.0762C115.292 14.0762 115.009 13.9045 114.782 13.5613C114.555 13.2181 114.442 12.7836 114.442 12.2578C114.442 11.7246 114.555 11.1733 114.782 10.6037ZM122.943 9.80403L122.873 11.8634C122.873 12.433 122.897 12.8457 122.943 13.1012C123.23 12.7726 123.477 12.3892 123.683 11.9511C123.897 11.5055 124.053 11.093 124.153 10.7132C124.26 10.3335 124.35 9.97929 124.423 9.65067C124.503 9.31474 124.577 9.04819 124.643 8.85101C124.71 8.65384 124.787 8.55525 124.873 8.55525C125 8.55525 125.113 8.61367 125.213 8.73052C125.313 8.84006 125.363 8.96786 125.363 9.11391C125.363 9.48636 125.21 10.0998 124.903 10.9542C124.643 11.7429 124.303 12.4659 123.883 13.1231C123.463 13.7731 123.137 14.0981 122.903 14.0981C122.67 14.0981 122.493 13.9557 122.373 13.6709C122.26 13.3861 122.197 12.842 122.183 12.0387C122.17 11.2281 122.18 10.527 122.213 9.93548C121.753 11.3084 121.347 12.3454 120.993 13.0465C120.64 13.7475 120.36 14.0981 120.153 14.0981C120.06 14.0981 119.96 14.0506 119.853 13.9557C119.753 13.8607 119.673 13.7366 119.613 13.5832C119.467 13.1962 119.34 12.4586 119.233 11.3705C119.133 10.2751 119.083 9.49366 119.083 9.02628C119.083 8.72687 119.167 8.57716 119.333 8.57716C119.48 8.57716 119.613 8.66844 119.733 8.85101C119.86 9.03359 119.933 9.21615 119.953 9.39872C119.973 9.57399 119.99 10.0706 120.003 10.8885C120.023 11.6991 120.087 12.4221 120.193 13.0574C120.467 12.539 120.74 11.8889 121.013 11.1076C121.293 10.3262 121.52 9.71275 121.693 9.26727C121.873 8.8218 122.037 8.59907 122.183 8.59907C122.403 8.59907 122.583 8.71225 122.723 8.93865C122.87 9.15773 122.943 9.44619 122.943 9.80403ZM131.365 11.8634C130.959 12.9443 130.642 13.7512 130.415 14.2843C130.195 14.8174 130.045 15.084 129.965 15.084C129.892 15.084 129.795 15.0037 129.675 14.843C129.562 14.6896 129.505 14.5618 129.505 14.4596C129.505 14.0579 130.559 11.1843 132.665 5.83861C132.672 5.8167 132.682 5.79114 132.695 5.76193C132.709 5.72542 132.719 5.69985 132.725 5.68525C132.732 5.66334 132.739 5.64143 132.745 5.61952C132.759 5.59761 132.769 5.58301 132.775 5.57571C132.789 5.5684 132.802 5.55745 132.815 5.54284C132.835 5.52824 132.875 5.52094 132.935 5.52094C132.995 5.52094 133.099 5.63048 133.245 5.84956C133.399 6.06865 133.475 6.26217 133.475 6.43013C133.475 6.5908 133.389 6.89021 133.215 7.32838C133.049 7.75924 132.799 8.35442 132.465 9.11391C132.139 9.8661 131.772 10.7826 131.365 11.8634ZM134.211 8.46761C134.211 8.35077 134.287 8.29235 134.441 8.29235C134.894 8.29965 135.441 8.49317 136.081 8.87292C136.721 9.25267 137.237 9.65432 137.631 10.0779C137.844 10.3116 137.951 10.527 137.951 10.7242C137.951 11.0016 137.427 11.4545 136.381 12.0825C136.301 12.1337 136.237 12.1737 136.191 12.203C135.131 12.8602 134.417 13.1889 134.051 13.1889C133.851 13.1889 133.751 13.1158 133.751 12.9698C133.751 12.8164 134.017 12.5681 134.551 12.2249C135.091 11.8744 135.627 11.5421 136.161 11.2281C136.701 10.9068 136.971 10.7059 136.971 10.6256C136.971 10.4722 136.701 10.2276 136.161 9.89166C135.621 9.55573 135.177 9.333 134.831 9.22345C134.704 9.17964 134.567 9.06645 134.421 8.88387C134.281 8.694 134.211 8.55525 134.211 8.46761Z" fill="#F5F5F5"/>
</svg>
